<mxfile host="drawio-plugin" agent="Mozilla/5.0 (Windows NT 10.0; Win64; x64) AppleWebKit/537.36 (KHTML, like Gecko) Chrome/111.0.0.0 Safari/537.36" modified="2025-02-26T00:17:59.532Z" etag="FrCqod9P6FVwMh_8EuXw" version="22.1.22" type="embed">
  <diagram name="Page-1" id="5f0bae14-7c28-e335-631c-24af17079c00">
    <mxGraphModel dx="2483" dy="1616" grid="1" gridSize="10" guides="1" tooltips="1" connect="1" arrows="1" fold="1" page="1" pageScale="1" pageWidth="1100" pageHeight="850" background="none" math="0" shadow="0">
      <root>
        <mxCell id="0" />
        <mxCell id="1" parent="0" />
        <mxCell id="88" value="" style="rounded=1;whiteSpace=wrap;html=1;fillColor=none;dashed=1;strokeWidth=2;" parent="1" vertex="1">
          <mxGeometry x="-40" y="371" width="1090" height="229" as="geometry" />
        </mxCell>
        <mxCell id="101" value="" style="rounded=1;whiteSpace=wrap;html=1;fillColor=none;dashed=1;strokeWidth=2;shadow=1;strokeColor=#10739e;" parent="1" vertex="1">
          <mxGeometry x="-80" y="-120" width="1160" height="1600" as="geometry" />
        </mxCell>
        <mxCell id="100" value="" style="rounded=1;html=1;fillColor=none;dashed=1;strokeWidth=2;labelBackgroundColor=default;strokeColor=#6600CC;" parent="1" vertex="1">
          <mxGeometry x="-50" y="-50" width="1100" height="380" as="geometry" />
        </mxCell>
        <mxCell id="90" value="" style="rounded=1;whiteSpace=wrap;html=1;fillColor=none;dashed=1;strokeWidth=2;strokeColor=#0000CC;" parent="1" vertex="1">
          <mxGeometry x="-50" y="1050" width="1090" height="290" as="geometry" />
        </mxCell>
        <mxCell id="89" value="" style="rounded=1;whiteSpace=wrap;html=1;dashed=1;strokeWidth=2;fillColor=none;fontColor=#ffffff;strokeColor=#0000FF;" parent="1" vertex="1">
          <mxGeometry x="-60" y="640" width="1090" height="360" as="geometry" />
        </mxCell>
        <mxCell id="5" value="" style="image;sketch=0;aspect=fixed;html=1;points=[];align=center;fontSize=12;image=img/lib/mscae/Cache_Redis_Product.svg;" parent="1" vertex="1">
          <mxGeometry x="682.85" y="120" width="107.15" height="90" as="geometry" />
        </mxCell>
        <mxCell id="6" value="" style="image;sketch=0;aspect=fixed;html=1;points=[];align=center;fontSize=12;image=img/lib/mscae/Docker.svg;" parent="1" vertex="1">
          <mxGeometry x="30" y="1390" width="50" height="41" as="geometry" />
        </mxCell>
        <mxCell id="10" value="" style="verticalLabelPosition=bottom;verticalAlign=top;html=1;shape=mxgraph.infographic.shadedCube;isoAngle=15;fillColor=#d5e8d4;strokeColor=#82b366;fillStyle=solid;" parent="1" vertex="1">
          <mxGeometry x="220" y="20" width="260" height="270" as="geometry" />
        </mxCell>
        <mxCell id="47" value="" style="outlineConnect=0;dashed=0;verticalLabelPosition=bottom;verticalAlign=top;align=center;html=1;shape=mxgraph.aws3.topic;fillColor=#5294CF;gradientColor=none;direction=west;" parent="1" vertex="1">
          <mxGeometry x="400" y="390" width="70" height="190" as="geometry" />
        </mxCell>
        <mxCell id="49" value="Animal topic" style="whiteSpace=wrap;html=1;rounded=1;arcSize=50;align=center;verticalAlign=middle;strokeWidth=1;autosize=1;spacing=4;treeFolding=1;treeMoving=1;newEdgeStyle={&quot;edgeStyle&quot;:&quot;entityRelationEdgeStyle&quot;,&quot;startArrow&quot;:&quot;none&quot;,&quot;endArrow&quot;:&quot;none&quot;,&quot;segment&quot;:10,&quot;curved&quot;:1,&quot;sourcePerimeterSpacing&quot;:0,&quot;targetPerimeterSpacing&quot;:0};" parent="1" vertex="1">
          <mxGeometry x="525" y="425" width="110" height="30" as="geometry" />
        </mxCell>
        <mxCell id="50" value="" style="startArrow=none;endArrow=none;segment=10;sourcePerimeterSpacing=0;targetPerimeterSpacing=0;rounded=0;entryX=0;entryY=0.75;entryDx=0;entryDy=0;" parent="1" source="47" target="49" edge="1">
          <mxGeometry relative="1" as="geometry">
            <mxPoint x="470" y="510" as="sourcePoint" />
            <mxPoint x="550" y="440" as="targetPoint" />
          </mxGeometry>
        </mxCell>
        <mxCell id="44" value="Rest API" style="shape=hexagon;perimeter=hexagonPerimeter2;whiteSpace=wrap;html=1;size=0.25;fillColor=#fff2cc;strokeColor=#d6b656;" parent="1" vertex="1">
          <mxGeometry x="120" y="110" width="120" height="90" as="geometry" />
        </mxCell>
        <mxCell id="68" value="" style="verticalLabelPosition=bottom;verticalAlign=top;html=1;shape=mxgraph.infographic.shadedCube;isoAngle=15;fillColor=#d5e8d4;strokeColor=#82b366;" parent="1" vertex="1">
          <mxGeometry x="220" y="676.5" width="260" height="263.5" as="geometry" />
        </mxCell>
        <mxCell id="70" value="" style="shape=image;verticalLabelPosition=bottom;labelBackgroundColor=default;verticalAlign=top;aspect=fixed;imageAspect=0;image=data:image/png,iVBORw0KGgoAAAANSUhEUgAAAMgAAADICAYAAACtWK6eAAAACXBIWXMAAAsTAAALEwEAmpwYAAAgAElEQVR4nO1de1Bb15m/7XTSbifNZttOOm2ns5PNpJvpdjt9zG4ync5mup10Ou12uttpZyeddGOnfiVOHDuOjR9gjMEYA8Y2GAw2AgF6IQmEQAgkJMRLIEC8BUgCjF+YlwAnTpP4xd352HHX1T0Cce+VzrnS+c38/vEYON93vu/ee875zu9jGAoKCgoKCgoKCgoKCgoKCgoKCgoKCgoKCgoKCgoKCgoKCgoKCgqKTULXY/6BvKM6+VKbVn6xWVWX21ThzLbIPFmNsjHK//cB+CS3qcIJPgJflTkNSbo+8/dowMUYtC7zdy61VKpT6/Ln3laeePg/xQdZSv4+eEeR+iC1tmD2UoumQt9vfR73/FLwgNajfULWrs89bswNbJEdogkRoYfC1pLDbIrxwkJJW1W2w+H4HA1WwgGTVNKuz9mvzbhL3xLRfVMeqDz9aXG7tggeTrjjgAIBhav2jwe0mZ/QxMD7CZmgz/pY3VX73zRICYHWoX0y21LSvLUkvE8p+H/vadPZFHMum9F0kc1pucxe6JCzBZR/5QPwSU7LZTajqYBNMZ9n92lPslvC9vFhNt+u7HB4HE/ijo+4BuyqHNaf+WijCdutPM5m2otYzbCBbbxiY61X7ZQ8fNA43cSqhwzsaVshu1t1fMNEOVKdc0fvbnwBd5zEJZQ9tb9+V3Xy/noTdMiQySoHq2gyROiBoBjUswmG0+smyT5N+j1td+MvcMdLXEHZVbt1V/mx1VCTAp9Q6uFqmhhRelMqh6rYvdq0kEnyZnnyqsplehV33MQFtD3ml3crUh6GWl+cbSlmLdP0Myran5GNV2xrvg+1ToEzKK3b/BPc8RPT0PY0/ON7mvR7qAnYWZHEakYM9K2BeX2lGq5id5QnIpPkfe3pu/WDTd/GHUcxiWQ2+bPJNeeXUY5/R3OCrfaaaHIQsvlQPW5i31alIJMEDhZhLnHHU8yh0KGpRDn8LWUya/Q3YA8KSvtf+aBuoiHkTtfl1soy3PEUU4Bv1+3yRM6iHF7l+rE6GpyEJmjVWB27vYz7ubVDnrSqcZlfwh1XMYMUY94i50kkO8hWDOiwBwGlfV0fyPsq2deLEzhJcqIufw53XMUE5M6qNNRrOt2ST4NTIgma2pCL/NSCEnrc8SVpaD2OJ/epT91FrTvMU1bsE09pD8sH5ikL+6biGHJXq9Zd+0XccSZZFDiUJtSTR9arpsEpsQS93K1EvkUKHepq3HEm2YtOO8qSOAvzg9UZ2Ceb0s7LBweqTnESBCoi1N319Gxks8hqKPYFO/N1WQKr9RhpgEo0SSs9NWtzGDyvcL03Ik/ZWAXU7aAcedJyAfskU9oF+eBEYx5nXuHWp7Lb9HvccScZJBnO3Q524rayo2wtPRCMiQPEbfKjnCQ5Zji/jDvuJAG4S45azOW1l2KfXEq7KD4431aCXLCXtFdl4o4/oqH1NH4Zdcdjj/rE2mUdGqCxkaSN003IWq296vT7hgHH07jjkFjk2SpaUE8WOI3FPamUdlF9UOrWIN8i+c0KK+44JBKaHvO/bJdz63aOGrNpcMZogh4yZHLme7v86CqI++GOR+KQUV90jbu7kUCLEWO8mHELYrcyo/7SJO54JAqKrprtqIK207aL2CeR0h5RH6RbCzjzDrFQ4ap5A3dcEiP2driKq0yyszyRrZ+00ACN8SStn7KwO8uTkIoo9GIVwzAgjIxarF3sLMc+eZT2qPgg31mGXLAXt+kKmXhGlbvh6yhB6b2Vqax1mgZo3CTotB2pigJC2aou29eYeMU5a1k36vtTMaDHP2mUbDR9oBisQl6syrOVdzDxCI3L9NM3So9wHJJsOkuDM06TM7HuDCceIEbU3eafMfEG6DHBcUbJYapOEses8dWzW0u5ulonTRdvMPGEcqfhfdSiLLv5EvZJosTrgyx7IXLBLncaEph4QKnD8QVUm4JdimNxe43Wds3Bumbdi/1zA2NA12xvAP4N97isGNgw1RTqeu4n583mzzOxjsIWtQ71hIArmbgnJ9q0X2tZHV4YMXo/9H412E+TdyafGVr0mOD/4B6nNcos7KpAvkWKWioVTCxD39P0DyBkHGz4fn06a7kaX3q6bTec97wrkxsuPr1LE79ovdFxD/d4rVEkxML7+nROguwqT17VuozPMrGKHItsmPNkkB2MOyX25mutqxMrEz8N12/+gP/n8fYm0Qwb1mIjOF7OWuV9TKz280B1gTrRkIt9MqJNz+KoerP+G17w1OAetzXKPF5/jhMvEENql+k3TKzhuPFCALXHbfSZsU9ENAlvAs+8Z9Otya7fvv5l+7UW7OO3RpGgufwn1FlZTW6AiSXIOqrSUYuuc60y7JMQbfbO9vHe0++55Z7DPX5rlAl9EpHbvh3VyUysqCO+pznF6ekByt+NV+LvGu3A/LCLry8H5gYHcY/fGmU2TtvWekwGxw/0iTG7zE8xUke+XdmAegKU9mqwOx8HhxZG7Hx9OTg/3IZ7/FYMLO5RId8iFx1qIyNlaHos3wWp+2DDDlafxu50miDSYgKiWSjEFnQ6ZqSKTHPxRLBRW0pAHbEGu8NpgkiLOo9xLXaC4ymrUTbGSBGK7to/oNQR063x3baAfmLZefsuDaHKCDGm6jK9xkgJcFUylDpi3UQj9iClCSJNmiYa2e1lXFXGo9VnP5DU9dySdl0BalF1oUOO3cm4Sd8gdkH+yw2pyqjPYaSA6rGmr7yrSnuAVEe8Io16K9dsz+JIYKxiPOB/w7vsf210aTxlYGG4q+V6+4NYSpDWGx0POma6PhbDLmuUCDG0R5PKSZB3lGn3q7ubvsKQjlxbeSsqw8v6KyVRQDge8G8NZdv0yvTTEKRNV5slmyCO620PhxdHq7yL0y88/rsnb0/+aGhhxNp8rfUh7nmwbsCyfi3yLZJnU9gYklHlNr+EUu5OrD2D3akbsetW98rE0sS3wrFzdHE8j2+S4EwQOIn3BXzfXO9vTC1Pfc91q2cZ93xYN+BhYxYnzraVHoUF+4sMqUg3FV7nbOvKEtYU9HA7dN3AmXXPwNthM7YOzA93SSlB4LNxmp3+Qjh/xx/wP9V9q3ce97xsqMqIKH7NMBddYUiEsqv2LZQqRaatELsz16N7rv+ah/U8sVl74ZITlK1LIUGgQNIf8H9nM38LkqSH8NqvjCa0KmNZZ80uhjh1RP2ZPyPVEafIVUfsme27NTMzw7vLav/84JAUEmRwYaiTz9/zE54k5hCqjId02R9BTDKk4FKLphy1aIKrk7idGIrwnQ0BIMRuWItIIUF8y77X+f5Nz7znSdetniXc87VZVcZLbZWXGRJQN2D75m4FQh1Rm0asOiJcYZ38YPJ5obaPLXkTpJAgfO6fPA7/bf9zxF77nbaz+7QnOQmyW5HyUNVX8w0GN841yXtR34GglIfdeQjarjpWvSsT/ymG7aOB8VOkJwjstolhq3d54jf2aw4ir/0qQ6gynreV8/q0FA3a3sZXUOqIcFUSt9NCcTQwniGW/UMLww7SEwS42QV6KIwtedOEnAFFkkl1OSxKiFDlMv47gwsnai/MBw8KlPEM3nrsDhNzsRoK7Tc7P5VCgoj5UBhY4Le9HWnWeNGqjGl1F2cYHKjoqjmEWhzlOMhUR+y42fmp0EX54xhdHMvlMw4cCQJnGmLZ7Q/4n+LzYIgGs5uLkAt2ubMquqqM2s7OvzmgPf1p8EB2VRxbU8bD7ahgwmfBeiUkmwXI8Diu8yvJwHVQOB4YTxTL/vGAfyuJn1rmK1b2LUUyJ0EOVJ7+FBQ9mWihwKGuRmVqcbcKu5NQHJwf6hYzOVpvdNznOxZcCQKHmrDQFssPA/PDLtzzimKRS4F8ixS1aDRMNFDXb30epY74PqHqiLA9CZI5Ytg+vuz/AxT7CRkPzlosGLtv2fcrMXwxvTL9dJuAB0VEVRmrTiFVGdVu83NMpHGmsWSUk6Gyg2tKeLidgyIc5olht2/F91s+pSUkJcijJBFxm7sI9/yiqBmpQaoy5lhLB5lIQttt/i+UOmIqoeqIHTNdnzhY4SUHvmXfvwl9c5CSII+SBGwS6hcP63kCNj9wzzOKKebznDiF2FW6akV5OCBx3JjLUUcE5Tujn0x1RNi3F2rz1J2pr3Xc7PpErDGRkCBA2InaqPQ9HIwvetNxz3NIVUY594zuWE3uEhMJlLTrMlGLn9w2MtURO2dcd4TazLLsZ6EUXsxxkZIgj4o1xXjDds647uCebxTPthQjF+ylHYZURkw0uZv+FpTskOqI0+QtzIFjAW+WULuhP4fY4yIpQYDQn0Son0YD4xdwzzeKEJtvq7iqjPs06fdqOmq+xIiFC3ZlE/IApo/Ma7TwjS2kjP1RX45IdHkiLUHARqE7W555z5NirdHEpqxXjXyLFDiUJkYMgHIdSh0RlO5wGx+KgwvDTiE2w2dH50zPB5EYG2kJAuyc6f6Qz6UxKZyLAA8ZMjkJsl2euKrttnyfEYrT5ktTwb8cFO5A6Q634SjCCa9/2f+yEJs9i6NlkRofiQkChC1bIT6bWJn4KYmn60DtqJHdIuPuvmY1FPuE2MxUdptfR6kjniJYHREu9wg9AAM5nHhLEDj0E3pvpGum+zbu+Q/Fk5YLnDiG2FY4a//Iy1hQqgPFOs6rqSyRNU2Sq444sjiqEzLJke7kRGqCiOG7oQhsaoipyrijPJGTJInVZz/kpcooa9OdQy1u4IojbmPX42Z6/+FYbJKcIPDmFLIW8S1N/hL3/K/HvPZS5IK9pL0qc1OGwoV3VC/zdzWprIXQbV1g+03nXUYARpfGcyI9RpITRIzD1TZSr+ZCndY0qDKe4CRIgj7r4029RUDnFJVpFQN67Eaux4H5YbeQyXXd6l2K9wTpnu1dEOLD/vmhftxxsB7L+tCqjHJnVfgPBsgoTpZJoOnN+JLvON+JnVia+HE0xkh6gsBOFKgr8h3jaGAsG3ccbMQD+gxOghypzgmv8kLdY/otKsMUg2S/PYATKxM/5DuxI4uj2miMkfQEAY4sjsr5jtG/7H8Zdxzw1fbV9ta/sqGBebYKjvj0fl06dqM2IiyuGQFwzboXozFOKSRIz6x7Vkj9WrMI1wIiTZRUUEGz0rKhgfu1GXeDfxBW/7gN2oiuW728e2fDhapIlJVINUGgH3u4Or4oSEH8GopsUYt1Zj1o3LU/5Lx6ZAdZo4/McnaxrtVCH5BojVMKCQL0B/y/4zvOgfnBPtzxEI4KCkpLS91d/+2QhkEZMKfyUXsSuzHhcGRhVMF3Qj2Lo+pojVMqCeJZHJORetgqFuHYIjjey7sMoRVQcm3ljuAfgMaJuA0Jh6ByyHdC++YHR6M1TqkkSN/cIO/rqZ7FsXO44yEcnkDcOsxvVppDGnbSVHiTs3CRSF9B35JvO8nnH1JLEFB1Z3hibNm7G3c8hMO8djknQTLqL02HNCyp+vwK93BQh92QcCikgrfjZqdoV2o34uD8SAvfcYIyZLTG6bzZ9We+44RyH9zxEA6hLWBwvKcY8xZDGnZQl8UpL6n01GA3JBxO3pl8hu+E8hWB40P4nOM7TvfcgF8K2+ZXlq/8Pe54CIfqIQP3wLAq56OQhu1RcrvTVntN2A0Jh0JKtaN5jwG6yvIdZzQlP2Hbm+EJEIPAHQ/htnHjbEqpT4Wu59ujSrsf/AOkClEHc7M9Bh9HtC/68NGlAtG6aI5RSIKMLVz9Ou544Jsg72lO3YvJTywh6onRThAoCIQT53DHB/83mhsJQhNk6s7U13DHQ0Q+sZIM525zFumD0likQ1NNvhMarVP0xzm0MNwc7vgGF4Y7oj0+OE1neALWg7jjgW9N1rqLdOilwNnm7SzHbkg4FCKC1oJJkaNvftADT9v1PlX65gbGcYwNBLoZnpj6YOrbuOMhHF5worZ5i6Y3Vah40iKNg0LvyuTP+E4obGniGjfsFg0tDLePL/l2+lamv+9f8f9gfMm/C/4Np5RO54wr9KfGBgAVedzxEA5BMpdzUGhXNYY0rLTDkM5ZtEigkhc4HvC9w3dCSW51jItCDgrHl3z7cY8/HEKjWU6pSWf14ZCG6dymF1HKD7X+BuzGbEQob4jVW3A4CDpXTBTbY0eboCeNUuzRuxtfWNc4lMQofKvhNmgjQoEc7wkNjBXiHn8stY0YWfAYcI9/I+a2l3CSA3QYNjQut6nCGfyD7+tPYTdoI/bPDQ3wnVD/sv/XuMdPGoXIkfZFsfiTL+ESIOdFYFNsXCen7Db9nnMnpPggqyT8ym3Xre7bfCcUpG7s11qIvwUXLTZfa30oRP6nk1C198f7qqNiXOUyhfdQQDXoPFyThd2w9Wi76lgVIuXvnuu/htsGUuie6w+91Rnewwa7DesRdKWD4/uQPjv84sySdl0BZ7FenMAqh6qwG7ceQZGd98QGxgpwj58UQjsDvn70Lft+hXv86xHER1Bvj5K2quywjdR6tE/s13Dvpu+tTGOt07E5sZMfTD7fdI1M8eVoEqoK/Lf9z8Xkg2YaLdbwfmXGpyCWuClDi9u1RahMK+yqwG9oCPbPDYwxAtA723cdtw242TvXx/vzCtA3NzCJ24ZQLHCWId8esjbd5nfsIKMO6898FPzLdpYnsvVTFuzGogglI5spAgyGN+Ddi9sGKR+4OljH50htpGOesrA7y5OQa49Nvz0eQdllegul/HDaVojd4FD0Lvtf4zvBkFzRvHNBGqFjrZAHjG/Z9zpuG0Ixo6mAE8cQ22WdNbsYIUg3FV4P/sVbZAlrtfS4jRb7SitgdHEsF7cNuAiyoUJ8Nzg/0oLbBhQhVrcg2pdnmIuuMEJR5Ta/tE1+lPPLjxrPYDdc7LvUjz4T4NYfbjtw+E3I2wNAqt/giCI4fiGmVV2mFxkxgKryBcKld9zGo+hb8r0qxN6xgDcJtw3R5njAd0SIz8YD/q24bdiMDm++XWFjxILW0/jld1UnOddx96hPsI1XbDG3mwXone27gdsOKRwMPkLfXL8Ptx3BhNjcgxCHA+2FWreD9wU7JIrb9BdQmXiho5TIU3UhF6geXfohdUdG7LISf8D/HSG+mlia+BaJp+fnEQWJmz4UDBfQgSfJcI7Ts3Bb2VG2boK8noUji55KoTZHo+MUbo4FvJtrP4YA+Bq3HaiehNvLEGvn6rO3GZb5DBMJqHpMr6Fq6E8S2PW27YbznhCF8kcYmB/qxW1LpDgwP9wl1D+eec+T0CEXty3BTGvI427ryhLYCqdR0Pp0Q2Q2XPZztn1LElgtgeonnsBYuVB7YVer+1bvPG5bItEuQkjFLslvD53HuBaTwXGa3VjMW7QvbGjdTf+8oyxpNfiPHySwRVvr9fYHQuSAHlcKJHULkw/BFrBJqF+8H3q/ikvwYrPVujvkSauanrrvMtEAKGAjFz+9GuzOCebwoqdODJu9K1efdd7s+igGkuMT2IAQwydDiyP1uO0JZnGPErkwL3SoeN843TRqxju+BAp0wYPYrTrONl5pwu6kxwntwKBSVwy74fdI+U0CyeFdnH5BFF8sTX6XtFZrEHsQg8FxuU+dflfrcfCWpuWFko6qU6hMPddajN1RYleoBmtVQQ8/3DZtltCDEbZjxfJDz6z7Jm6bgnnGcRn59pB3VCczOAAqdMGDeaP0CJEt28TYznwEKMkgte4IxYG5wUExFuQkb38b/Q3sn0qPcJLjuDGXd+9KwVD3mn6zteQwZ1AnGnKxOyyYcOgn5CIQCtDViuTDRBjb2JI3VUybJz+YfJ5Em4/Xn+PE4daSQ6zCafwPBidyLKXDnNea7OCaMDBupwWzd67/qtj2Q8DA7yXP1r5psR8ILMt+lsRLZZphw1rMcT73rfI+Bjeq3fbn3ixP5mz77tens5artpjSz1oP3iXvQRJ2uUBRRMilJ6ntWlmu2tj9+lOc5NhVnryqdRmfZUhAYYtah1ocXepWYndgMKHVwVjAF1peUuATFu5U4Njpct50fTQW8GYJLVkPhfHAeGK020SEw8KucuTCvKilknfXY9Fh9ps/D6p0nCxWHGPNU1bsTgxm87WWVX/A/0okfQJi1O65/iuRbK0ABYLuuYEJuMkXSVv8Af8r4DPc8xbMhqkmdlfFMU5yJOgyPwbhEYYkVHTWHkBlcnbzJeyORBGu1op1YLbRtjA82SGQxVjctlxvf9A3N+CFxbcYVQIbwbs4/QKp15Cz7IXIt0dFp3EvQyLS6gpmOdu+JYeJ7XMo5sFZuJhYmvjxaGA8A9obwD0M162eZQhAKDuHp/T/sXUV/g3qpUAlZGhh2AEJAe0RojlW7+L0Cx03u6LWAXgzhNaAW0u512jTTYU3GFKh7TG/DOcgwYM+ZjqL3aGh2H7TeXdqeep7uH1HGkhODutVO5tYm8OJMzgH0brNP2FIxrkmuQv12gNFO9xODUXoky700lAsAT494e1qJWBuUKwY0CE/rXJtFe0M6ajps37jbeWJh8GD31uZSrQqY9tN510h0qWxApAObbvRcQ/3fFhD0DJtY99FXKN9R5H6QNVlC9nOjihcaq0sQWX4xc4y7A5ej/ZrjlWxT56lBBBuIF3l/gKiryBQ1qa/yEgFoFQH7XSDjdgBqoyTZKoyPiLs9Q8vjpiZOMNIYKyCxHMO62M0TcI12kROchypzrkDV8IZKUHpqt2JUmXMsBVgd3Q47Jl1z8TDugTK1sFW3P62hsFTlnwW2XWgq3YrI0WcMhddRaky6glVZQym43rrQzjDYGIUUJUL28u4/WwNg/rRWnaLjLute7rh8iQjVWh7G/91uxzxSjRmY3f4Zgv/YmkrGN4aJBYdWtfhIUMmJ462y4+u6nrMP2CkjAt2hQO1qJL3kanKuF5ZB6iAwMk4I1FM3pl8BtZXpC/ErUEsdWuQC/OCZqWFkTqqx5q+glJlfEedwjZOk3U9N9xSj5HFUbkYkkLRwszMzBdBfYTEexzWDQgx8rYqhZMce9Xp9w0DjqeZWICsTXcOebDTXoJ9Aviy9UbHA3gai33nQuzT8OEFT2MrgbpV1jB5rlWGfHvInVWnmVgBy7KfSTKcu41SZaz1N2CfBKGfXtD2WEhfErHhXZrY5p7tn4pkJbE1CoTYQHUWOGY4v8zEGlQu06uoXYiTljzsEyEW4UkN97+9y963InUvAwW4bw5/E9ZIUFuG2w9WkZjakMuJF4ghlavud0wsIqtR5uXsY8tAldGIfTJET5br7Q9g9wu+/b1LE78XUzQBytx9S77tI4ujWqgIJk1+xyoCK0cMa7ERHC9nLCUeJlah6274J7QqYwb2CYk0Yeeoc8b1ESTN4Pxwm2dx9PL4km8/fJpBDZg/4H8JxOmAcM/dv+x/eTzgf2N80ZsOiTC4MNwBn01QREj6ibdVBB7QZ3CSY1f5sVV1d33E7/BgxcVmVR2ylqZXjX1SKMnwweVutDpikUNTxcQ6QOHuPc0pTg/2t5TJbANhqoyU9qj7wHzFyr6pSEb2Mq91136RiQeUdhhSUU+Isy3kqTJS2qPqgzPNl5Bvj3JndSITT0gxXpCMKiOlPSo+qPHVs2+UcoUIU+vy55h4g8pl+hVKlTHFfJ4GZJwm5THTWRalaaB2mX/OxCNyrKWDSFXG4Wrsk0UZXR8oh6rWStc5n91WeQ8Tr9C6LM++WXGccz13v45MVUZKe2R8MG1n92lPcpLjLUXKQ0NPo2iK9JJEUYtGg9zScyloQMZJUl4MoY54ubWyjIl3gALeQV0WV5WxgkxVRkq7qD6on7SyOyuSOMlxSJ9FnjoiLpR31uxDPUGym4toQMZ4UmbaLiLfHhWdxogIcEsWaXUXZ1A7GAZCVRkp7YJ9UD1uWuvhETzv6fVF13DHI5GqjKgOQUl1OTQYYzQhjxqzOfO9rfQo+eqIuHDeVt6JfN0O6rBPJqVdVB+U96PVEfNsFS2445BYgDLe24oTD4Kd9m5l2pqiHg3S2EhUSwh1xD3K1AdVg5ZncMch0Shu011GPVnynWSrMlLaw/ZBXnsodURdHu74Ix6gkBdKlRGU9WggSjsZTRONa3MZPL9Hq85+KDl1RFxQdtZuQ6oyNklDlZHSHtIH6Sh1RJmE1RFxIcNcdAV1H1k/VksDUKJJqAuhjpjZUOzDHW+Sg7bP9CNQzgt25mFjFvaJprSLqI6YuKrttkS1c1bMIN+usMWCKiOlnS3pVSMX5vnNqnrccSZZKIdNf4dSZQSlPXo9VzqJ1zDVxO5WHeckxz5N+j2zy/wU7jiTNEra9TmoJ09G00XsE09pD8sHJ63chTmwtMOQjju+YgJJ1edXkDsfg1U0SAlP1IpB3doluOD5O16Tt4Q7rmIGqm7TL6BGJ9jJUCZNixnJLkbciTjzADlRbW/9K7jjKi70tEAlHg6fcAcDpf2vfFA30YhUZQcWtWi0uOMp5gCXZxKrz36IcvjeyjSqhkJQktZ469k9mhPI5EiqOb8CPSxxx1NMAroJoXa1Ht1ABD1X3MER79R6jGtzgXyQqdPv6/rMMdOpi0goe2p/DRqtqAmAC1Zr4nME92OPVVqu2tiCDjlS1wr4ZnnyKqwlccdPXKCi07gX1fvwEQ9UZbBaTw32oIkXVnpq2Pf16SHnA07LFZ01u3DHTVxB7qx+dXdFCufuyF8oO8gm1p1ZmzzcARSr1Awb1m4FogpL/7KJokh9UOkyvYo7XuIScDUTRI1DJsljF65yWoppoaMIn1G60Vr2jONyyEX4X73JtZmf6NymF3HHSVyj3Gl5JrPhcv96T7HgPfiD1afXmtJnN19i89pL176dKbk+yG0vWfNRujV/rYfLn+RczQAU4RD3bJN8xDLopLcDSUGZ07gfdknCmUDKyPngPU36vXJnzW7c8UARovdIcbu2aK/65D2aBNF9EOxRpd0vdKirY6Y1c6wnSlFLpeJIVc6dcD+9KDfvg9eLE9ij1Wc/uNRaWRI3zW1icW5qa9IAAAB8SURBVCGf36w0Q8EjbDfSRBD2MNghT1qFNsxQ+qNxmV/CPb8UIgJKHDRd5l+CekahQ1WTZy9vO2MpGcpqlI1Rcn1wxlIyBD4CX8na9bnQp4MKK1BQUFBQUFBQUFBQUFBQUFBQUFBQUFBQUFBQUFBQUFBQUFBQUFAwm8T/AsSw1AD1u4oiAAAAAElFTkSuQmCC;" parent="1" vertex="1">
          <mxGeometry x="380" y="800" width="70" height="70" as="geometry" />
        </mxCell>
        <mxCell id="71" value="" style="shape=image;verticalLabelPosition=bottom;labelBackgroundColor=default;verticalAlign=top;aspect=fixed;imageAspect=0;image=data:image/png,iVBORw0KGgoAAAANSUhEUgAAAMgAAADICAYAAACtWK6eAAAACXBIWXMAAAsTAAALEwEAmpwYAAAgAElEQVR4nO1de1Bb15m/7XTSbifNZttOOm2ns5PNpJvpdjt9zG4ync5mup10Ou12uttpZyeddGOnfiVOHDuOjR9gjMEYA8Y2GAw2AgF6IQmEQAgkJMRLIEC8BUgCjF+YlwAnTpP4xd352HHX1T0Cce+VzrnS+c38/vEYON93vu/ee875zu9jGAoKCgoKCgoKCgoKCgoKCgoKCgoKCgoKCgoKCgoKCgoKCgoKCgqKTULXY/6BvKM6+VKbVn6xWVWX21ThzLbIPFmNsjHK//cB+CS3qcIJPgJflTkNSbo+8/dowMUYtC7zdy61VKpT6/Ln3laeePg/xQdZSv4+eEeR+iC1tmD2UoumQt9vfR73/FLwgNajfULWrs89bswNbJEdogkRoYfC1pLDbIrxwkJJW1W2w+H4HA1WwgGTVNKuz9mvzbhL3xLRfVMeqDz9aXG7tggeTrjjgAIBhav2jwe0mZ/QxMD7CZmgz/pY3VX73zRICYHWoX0y21LSvLUkvE8p+H/vadPZFHMum9F0kc1pucxe6JCzBZR/5QPwSU7LZTajqYBNMZ9n92lPslvC9vFhNt+u7HB4HE/ijo+4BuyqHNaf+WijCdutPM5m2otYzbCBbbxiY61X7ZQ8fNA43cSqhwzsaVshu1t1fMNEOVKdc0fvbnwBd5zEJZQ9tb9+V3Xy/noTdMiQySoHq2gyROiBoBjUswmG0+smyT5N+j1td+MvcMdLXEHZVbt1V/mx1VCTAp9Q6uFqmhhRelMqh6rYvdq0kEnyZnnyqsplehV33MQFtD3ml3crUh6GWl+cbSlmLdP0Myran5GNV2xrvg+1ToEzKK3b/BPc8RPT0PY0/ON7mvR7qAnYWZHEakYM9K2BeX2lGq5id5QnIpPkfe3pu/WDTd/GHUcxiWQ2+bPJNeeXUY5/R3OCrfaaaHIQsvlQPW5i31alIJMEDhZhLnHHU8yh0KGpRDn8LWUya/Q3YA8KSvtf+aBuoiHkTtfl1soy3PEUU4Bv1+3yRM6iHF7l+rE6GpyEJmjVWB27vYz7ubVDnrSqcZlfwh1XMYMUY94i50kkO8hWDOiwBwGlfV0fyPsq2deLEzhJcqIufw53XMUE5M6qNNRrOt2ST4NTIgma2pCL/NSCEnrc8SVpaD2OJ/epT91FrTvMU1bsE09pD8sH5ikL+6biGHJXq9Zd+0XccSZZFDiUJtSTR9arpsEpsQS93K1EvkUKHepq3HEm2YtOO8qSOAvzg9UZ2Ceb0s7LBweqTnESBCoi1N319Gxks8hqKPYFO/N1WQKr9RhpgEo0SSs9NWtzGDyvcL03Ik/ZWAXU7aAcedJyAfskU9oF+eBEYx5nXuHWp7Lb9HvccScZJBnO3Q524rayo2wtPRCMiQPEbfKjnCQ5Zji/jDvuJAG4S45azOW1l2KfXEq7KD4431aCXLCXtFdl4o4/oqH1NH4Zdcdjj/rE2mUdGqCxkaSN003IWq296vT7hgHH07jjkFjk2SpaUE8WOI3FPamUdlF9UOrWIN8i+c0KK+44JBKaHvO/bJdz63aOGrNpcMZogh4yZHLme7v86CqI++GOR+KQUV90jbu7kUCLEWO8mHELYrcyo/7SJO54JAqKrprtqIK207aL2CeR0h5RH6RbCzjzDrFQ4ap5A3dcEiP2driKq0yyszyRrZ+00ACN8SStn7KwO8uTkIoo9GIVwzAgjIxarF3sLMc+eZT2qPgg31mGXLAXt+kKmXhGlbvh6yhB6b2Vqax1mgZo3CTotB2pigJC2aou29eYeMU5a1k36vtTMaDHP2mUbDR9oBisQl6syrOVdzDxCI3L9NM3So9wHJJsOkuDM06TM7HuDCceIEbU3eafMfEG6DHBcUbJYapOEses8dWzW0u5ulonTRdvMPGEcqfhfdSiLLv5EvZJosTrgyx7IXLBLncaEph4QKnD8QVUm4JdimNxe43Wds3Bumbdi/1zA2NA12xvAP4N97isGNgw1RTqeu4n583mzzOxjsIWtQ71hIArmbgnJ9q0X2tZHV4YMXo/9H412E+TdyafGVr0mOD/4B6nNcos7KpAvkWKWioVTCxD39P0DyBkHGz4fn06a7kaX3q6bTec97wrkxsuPr1LE79ovdFxD/d4rVEkxML7+nROguwqT17VuozPMrGKHItsmPNkkB2MOyX25mutqxMrEz8N12/+gP/n8fYm0Qwb1mIjOF7OWuV9TKz280B1gTrRkIt9MqJNz+KoerP+G17w1OAetzXKPF5/jhMvEENql+k3TKzhuPFCALXHbfSZsU9ENAlvAs+8Z9Otya7fvv5l+7UW7OO3RpGgufwn1FlZTW6AiSXIOqrSUYuuc60y7JMQbfbO9vHe0++55Z7DPX5rlAl9EpHbvh3VyUysqCO+pznF6ekByt+NV+LvGu3A/LCLry8H5gYHcY/fGmU2TtvWekwGxw/0iTG7zE8xUke+XdmAegKU9mqwOx8HhxZG7Hx9OTg/3IZ7/FYMLO5RId8iFx1qIyNlaHos3wWp+2DDDlafxu50miDSYgKiWSjEFnQ6ZqSKTHPxRLBRW0pAHbEGu8NpgkiLOo9xLXaC4ymrUTbGSBGK7to/oNQR063x3baAfmLZefsuDaHKCDGm6jK9xkgJcFUylDpi3UQj9iClCSJNmiYa2e1lXFXGo9VnP5DU9dySdl0BalF1oUOO3cm4Sd8gdkH+yw2pyqjPYaSA6rGmr7yrSnuAVEe8Io16K9dsz+JIYKxiPOB/w7vsf210aTxlYGG4q+V6+4NYSpDWGx0POma6PhbDLmuUCDG0R5PKSZB3lGn3q7ubvsKQjlxbeSsqw8v6KyVRQDge8G8NZdv0yvTTEKRNV5slmyCO620PhxdHq7yL0y88/rsnb0/+aGhhxNp8rfUh7nmwbsCyfi3yLZJnU9gYklHlNr+EUu5OrD2D3akbsetW98rE0sS3wrFzdHE8j2+S4EwQOIn3BXzfXO9vTC1Pfc91q2cZ93xYN+BhYxYnzraVHoUF+4sMqUg3FV7nbOvKEtYU9HA7dN3AmXXPwNthM7YOzA93SSlB4LNxmp3+Qjh/xx/wP9V9q3ce97xsqMqIKH7NMBddYUiEsqv2LZQqRaatELsz16N7rv+ah/U8sVl74ZITlK1LIUGgQNIf8H9nM38LkqSH8NqvjCa0KmNZZ80uhjh1RP2ZPyPVEafIVUfsme27NTMzw7vLav/84JAUEmRwYaiTz9/zE54k5hCqjId02R9BTDKk4FKLphy1aIKrk7idGIrwnQ0BIMRuWItIIUF8y77X+f5Nz7znSdetniXc87VZVcZLbZWXGRJQN2D75m4FQh1Rm0asOiJcYZ38YPJ5obaPLXkTpJAgfO6fPA7/bf9zxF77nbaz+7QnOQmyW5HyUNVX8w0GN841yXtR34GglIfdeQjarjpWvSsT/ymG7aOB8VOkJwjstolhq3d54jf2aw4ir/0qQ6gynreV8/q0FA3a3sZXUOqIcFUSt9NCcTQwniGW/UMLww7SEwS42QV6KIwtedOEnAFFkkl1OSxKiFDlMv47gwsnai/MBw8KlPEM3nrsDhNzsRoK7Tc7P5VCgoj5UBhY4Le9HWnWeNGqjGl1F2cYHKjoqjmEWhzlOMhUR+y42fmp0EX54xhdHMvlMw4cCQJnGmLZ7Q/4n+LzYIgGs5uLkAt2ubMquqqM2s7OvzmgPf1p8EB2VRxbU8bD7ahgwmfBeiUkmwXI8Diu8yvJwHVQOB4YTxTL/vGAfyuJn1rmK1b2LUUyJ0EOVJ7+FBQ9mWihwKGuRmVqcbcKu5NQHJwf6hYzOVpvdNznOxZcCQKHmrDQFssPA/PDLtzzimKRS4F8ixS1aDRMNFDXb30epY74PqHqiLA9CZI5Ytg+vuz/AxT7CRkPzlosGLtv2fcrMXwxvTL9dJuAB0VEVRmrTiFVGdVu83NMpHGmsWSUk6Gyg2tKeLidgyIc5olht2/F91s+pSUkJcijJBFxm7sI9/yiqBmpQaoy5lhLB5lIQttt/i+UOmIqoeqIHTNdnzhY4SUHvmXfvwl9c5CSII+SBGwS6hcP63kCNj9wzzOKKebznDiF2FW6akV5OCBx3JjLUUcE5Tujn0x1RNi3F2rz1J2pr3Xc7PpErDGRkCBA2InaqPQ9HIwvetNxz3NIVUY594zuWE3uEhMJlLTrMlGLn9w2MtURO2dcd4TazLLsZ6EUXsxxkZIgj4o1xXjDds647uCebxTPthQjF+ylHYZURkw0uZv+FpTskOqI0+QtzIFjAW+WULuhP4fY4yIpQYDQn0Son0YD4xdwzzeKEJtvq7iqjPs06fdqOmq+xIiFC3ZlE/IApo/Ma7TwjS2kjP1RX45IdHkiLUHARqE7W555z5NirdHEpqxXjXyLFDiUJkYMgHIdSh0RlO5wGx+KgwvDTiE2w2dH50zPB5EYG2kJAuyc6f6Qz6UxKZyLAA8ZMjkJsl2euKrttnyfEYrT5ktTwb8cFO5A6Q634SjCCa9/2f+yEJs9i6NlkRofiQkChC1bIT6bWJn4KYmn60DtqJHdIuPuvmY1FPuE2MxUdptfR6kjniJYHREu9wg9AAM5nHhLEDj0E3pvpGum+zbu+Q/Fk5YLnDiG2FY4a//Iy1hQqgPFOs6rqSyRNU2Sq444sjiqEzLJke7kRGqCiOG7oQhsaoipyrijPJGTJInVZz/kpcooa9OdQy1u4IojbmPX42Z6/+FYbJKcIPDmFLIW8S1N/hL3/K/HvPZS5IK9pL0qc1OGwoV3VC/zdzWprIXQbV1g+03nXUYARpfGcyI9RpITRIzD1TZSr+ZCndY0qDKe4CRIgj7r4029RUDnFJVpFQN67Eaux4H5YbeQyXXd6l2K9wTpnu1dEOLD/vmhftxxsB7L+tCqjHJnVfgPBsgoTpZJoOnN+JLvON+JnVia+HE0xkh6gsBOFKgr8h3jaGAsG3ccbMQD+gxOghypzgmv8kLdY/otKsMUg2S/PYATKxM/5DuxI4uj2miMkfQEAY4sjsr5jtG/7H8Zdxzw1fbV9ta/sqGBebYKjvj0fl06dqM2IiyuGQFwzboXozFOKSRIz6x7Vkj9WrMI1wIiTZRUUEGz0rKhgfu1GXeDfxBW/7gN2oiuW728e2fDhapIlJVINUGgH3u4Or4oSEH8GopsUYt1Zj1o3LU/5Lx6ZAdZo4/McnaxrtVCH5BojVMKCQL0B/y/4zvOgfnBPtzxEI4KCkpLS91d/+2QhkEZMKfyUXsSuzHhcGRhVMF3Qj2Lo+pojVMqCeJZHJORetgqFuHYIjjey7sMoRVQcm3ljuAfgMaJuA0Jh6ByyHdC++YHR6M1TqkkSN/cIO/rqZ7FsXO44yEcnkDcOsxvVppDGnbSVHiTs3CRSF9B35JvO8nnH1JLEFB1Z3hibNm7G3c8hMO8djknQTLqL02HNCyp+vwK93BQh92QcCikgrfjZqdoV2o34uD8SAvfcYIyZLTG6bzZ9We+44RyH9zxEA6hLWBwvKcY8xZDGnZQl8UpL6n01GA3JBxO3pl8hu+E8hWB40P4nOM7TvfcgF8K2+ZXlq/8Pe54CIfqIQP3wLAq56OQhu1RcrvTVntN2A0Jh0JKtaN5jwG6yvIdZzQlP2Hbm+EJEIPAHQ/htnHjbEqpT4Wu59ujSrsf/AOkClEHc7M9Bh9HtC/68NGlAtG6aI5RSIKMLVz9Ou544Jsg72lO3YvJTywh6onRThAoCIQT53DHB/83mhsJQhNk6s7U13DHQ0Q+sZIM525zFumD0likQ1NNvhMarVP0xzm0MNwc7vgGF4Y7oj0+OE1neALWg7jjgW9N1rqLdOilwNnm7SzHbkg4FCKC1oJJkaNvftADT9v1PlX65gbGcYwNBLoZnpj6YOrbuOMhHF5worZ5i6Y3Vah40iKNg0LvyuTP+E4obGniGjfsFg0tDLePL/l2+lamv+9f8f9gfMm/C/4Np5RO54wr9KfGBgAVedzxEA5BMpdzUGhXNYY0rLTDkM5ZtEigkhc4HvC9w3dCSW51jItCDgrHl3z7cY8/HEKjWU6pSWf14ZCG6dymF1HKD7X+BuzGbEQob4jVW3A4CDpXTBTbY0eboCeNUuzRuxtfWNc4lMQofKvhNmgjQoEc7wkNjBXiHn8stY0YWfAYcI9/I+a2l3CSA3QYNjQut6nCGfyD7+tPYTdoI/bPDQ3wnVD/sv/XuMdPGoXIkfZFsfiTL+ESIOdFYFNsXCen7Db9nnMnpPggqyT8ym3Xre7bfCcUpG7s11qIvwUXLTZfa30oRP6nk1C198f7qqNiXOUyhfdQQDXoPFyThd2w9Wi76lgVIuXvnuu/htsGUuie6w+91Rnewwa7DesRdKWD4/uQPjv84sySdl0BZ7FenMAqh6qwG7ceQZGd98QGxgpwj58UQjsDvn70Lft+hXv86xHER1Bvj5K2quywjdR6tE/s13Dvpu+tTGOt07E5sZMfTD7fdI1M8eVoEqoK/Lf9z8Xkg2YaLdbwfmXGpyCWuClDi9u1RahMK+yqwG9oCPbPDYwxAtA723cdtw242TvXx/vzCtA3NzCJ24ZQLHCWId8esjbd5nfsIKMO6898FPzLdpYnsvVTFuzGogglI5spAgyGN+Ddi9sGKR+4OljH50htpGOesrA7y5OQa49Nvz0eQdllegul/HDaVojd4FD0Lvtf4zvBkFzRvHNBGqFjrZAHjG/Z9zpuG0Ixo6mAE8cQ22WdNbsYIUg3FV4P/sVbZAlrtfS4jRb7SitgdHEsF7cNuAiyoUJ8Nzg/0oLbBhQhVrcg2pdnmIuuMEJR5Ta/tE1+lPPLjxrPYDdc7LvUjz4T4NYfbjtw+E3I2wNAqt/giCI4fiGmVV2mFxkxgKryBcKld9zGo+hb8r0qxN6xgDcJtw3R5njAd0SIz8YD/q24bdiMDm++XWFjxILW0/jld1UnOddx96hPsI1XbDG3mwXone27gdsOKRwMPkLfXL8Ptx3BhNjcgxCHA+2FWreD9wU7JIrb9BdQmXiho5TIU3UhF6geXfohdUdG7LISf8D/HSG+mlia+BaJp+fnEQWJmz4UDBfQgSfJcI7Ts3Bb2VG2boK8noUji55KoTZHo+MUbo4FvJtrP4YA+Bq3HaiehNvLEGvn6rO3GZb5DBMJqHpMr6Fq6E8S2PW27YbznhCF8kcYmB/qxW1LpDgwP9wl1D+eec+T0CEXty3BTGvI427ryhLYCqdR0Pp0Q2Q2XPZztn1LElgtgeonnsBYuVB7YVer+1bvPG5bItEuQkjFLslvD53HuBaTwXGa3VjMW7QvbGjdTf+8oyxpNfiPHySwRVvr9fYHQuSAHlcKJHULkw/BFrBJqF+8H3q/ikvwYrPVujvkSauanrrvMtEAKGAjFz+9GuzOCebwoqdODJu9K1efdd7s+igGkuMT2IAQwydDiyP1uO0JZnGPErkwL3SoeN843TRqxju+BAp0wYPYrTrONl5pwu6kxwntwKBSVwy74fdI+U0CyeFdnH5BFF8sTX6XtFZrEHsQg8FxuU+dflfrcfCWpuWFko6qU6hMPddajN1RYleoBmtVQQ8/3DZtltCDEbZjxfJDz6z7Jm6bgnnGcRn59pB3VCczOAAqdMGDeaP0CJEt28TYznwEKMkgte4IxYG5wUExFuQkb38b/Q3sn0qPcJLjuDGXd+9KwVD3mn6zteQwZ1AnGnKxOyyYcOgn5CIQCtDViuTDRBjb2JI3VUybJz+YfJ5Em4/Xn+PE4daSQ6zCafwPBidyLKXDnNea7OCaMDBupwWzd67/qtj2Q8DA7yXP1r5psR8ILMt+lsRLZZphw1rMcT73rfI+Bjeq3fbn3ixP5mz77tens5artpjSz1oP3iXvQRJ2uUBRRMilJ6ntWlmu2tj9+lOc5NhVnryqdRmfZUhAYYtah1ocXepWYndgMKHVwVjAF1peUuATFu5U4Njpct50fTQW8GYJLVkPhfHAeGK020SEw8KucuTCvKilknfXY9Fh9ps/D6p0nCxWHGPNU1bsTgxm87WWVX/A/0okfQJi1O65/iuRbK0ABYLuuYEJuMkXSVv8Af8r4DPc8xbMhqkmdlfFMU5yJOgyPwbhEYYkVHTWHkBlcnbzJeyORBGu1op1YLbRtjA82SGQxVjctlxvf9A3N+CFxbcYVQIbwbs4/QKp15Cz7IXIt0dFp3EvQyLS6gpmOdu+JYeJ7XMo5sFZuJhYmvjxaGA8A9obwD0M162eZQhAKDuHp/T/sXUV/g3qpUAlZGhh2AEJAe0RojlW7+L0Cx03u6LWAXgzhNaAW0u512jTTYU3GFKh7TG/DOcgwYM+ZjqL3aGh2H7TeXdqeep7uH1HGkhODutVO5tYm8OJMzgH0brNP2FIxrkmuQv12gNFO9xODUXoky700lAsAT494e1qJWBuUKwY0CE/rXJtFe0M6ajps37jbeWJh8GD31uZSrQqY9tN510h0qWxApAObbvRcQ/3fFhD0DJtY99FXKN9R5H6QNVlC9nOjihcaq0sQWX4xc4y7A5ej/ZrjlWxT56lBBBuIF3l/gKiryBQ1qa/yEgFoFQH7XSDjdgBqoyTZKoyPiLs9Q8vjpiZOMNIYKyCxHMO62M0TcI12kROchypzrkDV8IZKUHpqt2JUmXMsBVgd3Q47Jl1z8TDugTK1sFW3P62hsFTlnwW2XWgq3YrI0WcMhddRaky6glVZQym43rrQzjDYGIUUJUL28u4/WwNg/rRWnaLjLute7rh8iQjVWh7G/91uxzxSjRmY3f4Zgv/YmkrGN4aJBYdWtfhIUMmJ462y4+u6nrMP2CkjAt2hQO1qJL3kanKuF5ZB6iAwMk4I1FM3pl8BtZXpC/ErUEsdWuQC/OCZqWFkTqqx5q+glJlfEedwjZOk3U9N9xSj5HFUbkYkkLRwszMzBdBfYTEexzWDQgx8rYqhZMce9Xp9w0DjqeZWICsTXcOebDTXoJ9Aviy9UbHA3gai33nQuzT8OEFT2MrgbpV1jB5rlWGfHvInVWnmVgBy7KfSTKcu41SZaz1N2CfBKGfXtD2WEhfErHhXZrY5p7tn4pkJbE1CoTYQHUWOGY4v8zEGlQu06uoXYiTljzsEyEW4UkN97+9y963InUvAwW4bw5/E9ZIUFuG2w9WkZjakMuJF4ghlavud0wsIqtR5uXsY8tAldGIfTJET5br7Q9g9wu+/b1LE78XUzQBytx9S77tI4ujWqgIJk1+xyoCK0cMa7ERHC9nLCUeJlah6274J7QqYwb2CYk0Yeeoc8b1ESTN4Pxwm2dx9PL4km8/fJpBDZg/4H8JxOmAcM/dv+x/eTzgf2N80ZsOiTC4MNwBn01QREj6ibdVBB7QZ3CSY1f5sVV1d33E7/BgxcVmVR2ylqZXjX1SKMnwweVutDpikUNTxcQ6QOHuPc0pTg/2t5TJbANhqoyU9qj7wHzFyr6pSEb2Mq91136RiQeUdhhSUU+Isy3kqTJS2qPqgzPNl5Bvj3JndSITT0gxXpCMKiOlPSo+qPHVs2+UcoUIU+vy55h4g8pl+hVKlTHFfJ4GZJwm5THTWRalaaB2mX/OxCNyrKWDSFXG4Wrsk0UZXR8oh6rWStc5n91WeQ8Tr9C6LM++WXGccz13v45MVUZKe2R8MG1n92lPcpLjLUXKQ0NPo2iK9JJEUYtGg9zScyloQMZJUl4MoY54ubWyjIl3gALeQV0WV5WxgkxVRkq7qD6on7SyOyuSOMlxSJ9FnjoiLpR31uxDPUGym4toQMZ4UmbaLiLfHhWdxogIcEsWaXUXZ1A7GAZCVRkp7YJ9UD1uWuvhETzv6fVF13DHI5GqjKgOQUl1OTQYYzQhjxqzOfO9rfQo+eqIuHDeVt6JfN0O6rBPJqVdVB+U96PVEfNsFS2445BYgDLe24oTD4Kd9m5l2pqiHg3S2EhUSwh1xD3K1AdVg5ZncMch0Shu011GPVnynWSrMlLaw/ZBXnsodURdHu74Ix6gkBdKlRGU9WggSjsZTRONa3MZPL9Hq85+KDl1RFxQdtZuQ6oyNklDlZHSHtIH6Sh1RJmE1RFxIcNcdAV1H1k/VksDUKJJqAuhjpjZUOzDHW+Sg7bP9CNQzgt25mFjFvaJprSLqI6YuKrttkS1c1bMIN+usMWCKiOlnS3pVSMX5vnNqnrccSZZKIdNf4dSZQSlPXo9VzqJ1zDVxO5WHeckxz5N+j2zy/wU7jiTNEra9TmoJ09G00XsE09pD8sHJ63chTmwtMOQjju+YgJJ1edXkDsfg1U0SAlP1IpB3doluOD5O16Tt4Q7rmIGqm7TL6BGJ9jJUCZNixnJLkbciTjzADlRbW/9K7jjKi70tEAlHg6fcAcDpf2vfFA30YhUZQcWtWi0uOMp5gCXZxKrz36IcvjeyjSqhkJQktZ469k9mhPI5EiqOb8CPSxxx1NMAroJoXa1Ht1ABD1X3MER79R6jGtzgXyQqdPv6/rMMdOpi0goe2p/DRqtqAmAC1Zr4nME92OPVVqu2tiCDjlS1wr4ZnnyKqwlccdPXKCi07gX1fvwEQ9UZbBaTw32oIkXVnpq2Pf16SHnA07LFZ01u3DHTVxB7qx+dXdFCufuyF8oO8gm1p1ZmzzcARSr1Awb1m4FogpL/7KJokh9UOkyvYo7XuIScDUTRI1DJsljF65yWoppoaMIn1G60Vr2jONyyEX4X73JtZmf6NymF3HHSVyj3Gl5JrPhcv96T7HgPfiD1afXmtJnN19i89pL176dKbk+yG0vWfNRujV/rYfLn+RczQAU4RD3bJN8xDLopLcDSUGZ07gfdknCmUDKyPngPU36vXJnzW7c8UARovdIcbu2aK/65D2aBNF9EOxRpd0vdKirY6Y1c6wnSlFLpeJIVc6dcD+9KDfvg9eLE9ij1Wc/uNRaWRI3zW1icW5qa9IAAAB8SURBVCGf36w0Q8EjbDfSRBD2MNghT1qFNsxQ+qNxmV/CPb8UIgJKHDRd5l+CekahQ1WTZy9vO2MpGcpqlI1Rcn1wxlIyBD4CX8na9bnQp4MKK1BQUFBQUFBQUFBQUFBQUFBQUFBQUFBQUFBQUFBQUFBQUFBQUFAwm8T/AsSw1AD1u4oiAAAAAElFTkSuQmCC;" parent="1" vertex="1">
          <mxGeometry x="380" y="146.6" width="68" height="68" as="geometry" />
        </mxCell>
        <mxCell id="77" value="" style="image;aspect=fixed;perimeter=ellipsePerimeter;html=1;align=center;shadow=0;dashed=0;spacingTop=3;image=img/lib/active_directory/laptop_client.svg;" parent="1" vertex="1">
          <mxGeometry x="210" y="1122.78" width="130" height="144.44" as="geometry" />
        </mxCell>
        <mxCell id="84" value="" style="endArrow=classic;html=1;rounded=0;entryX=0;entryY=0.5;entryDx=0;entryDy=0;verticalAlign=middle;" parent="1" target="44" edge="1">
          <mxGeometry width="50" height="50" relative="1" as="geometry">
            <mxPoint x="-153.4000000000001" y="155" as="sourcePoint" />
            <mxPoint x="-23.400000000000006" y="96.6" as="targetPoint" />
          </mxGeometry>
        </mxCell>
        <mxCell id="86" value="&lt;b&gt;&lt;font style=&quot;font-size: 13px;&quot;&gt;1. Request to subscribe&lt;/font&gt;&lt;/b&gt;" style="edgeLabel;html=1;align=center;verticalAlign=top;resizable=0;points=[];horizontal=1;" parent="84" vertex="1" connectable="0">
          <mxGeometry x="0.1818" y="-2" relative="1" as="geometry">
            <mxPoint x="12" y="-37" as="offset" />
          </mxGeometry>
        </mxCell>
        <mxCell id="91" value="&lt;b&gt;&lt;font style=&quot;font-size: 14px;&quot;&gt;ansh-notification-service&lt;/font&gt;&lt;/b&gt;" style="text;html=1;strokeColor=none;fillColor=none;align=center;verticalAlign=middle;whiteSpace=wrap;rounded=0;" parent="1" vertex="1">
          <mxGeometry x="840" y="284.25" width="180" height="30" as="geometry" />
        </mxCell>
        <mxCell id="92" value="&lt;b&gt;kafka-ansh&lt;/b&gt;" style="text;html=1;strokeColor=none;fillColor=none;align=center;verticalAlign=middle;whiteSpace=wrap;rounded=0;" parent="1" vertex="1">
          <mxGeometry x="930" y="557" width="80" height="30" as="geometry" />
        </mxCell>
        <mxCell id="93" value="&lt;b&gt;ansh-service&lt;/b&gt;" style="text;html=1;strokeColor=none;fillColor=none;align=center;verticalAlign=middle;whiteSpace=wrap;rounded=0;" parent="1" vertex="1">
          <mxGeometry x="900" y="940" width="90" height="41" as="geometry" />
        </mxCell>
        <mxCell id="94" value="&lt;b&gt;ansh-react-app&lt;/b&gt;" style="text;html=1;strokeColor=none;fillColor=none;align=center;verticalAlign=middle;whiteSpace=wrap;rounded=0;" parent="1" vertex="1">
          <mxGeometry x="910" y="1290" width="90" height="30" as="geometry" />
        </mxCell>
        <mxCell id="106" value="" style="endArrow=classic;html=1;rounded=0;exitX=0.832;exitY=0.159;exitDx=0;exitDy=0;exitPerimeter=0;entryX=0.5;entryY=0;entryDx=0;entryDy=0;entryPerimeter=0;" parent="1" source="68" target="47" edge="1">
          <mxGeometry width="50" height="50" relative="1" as="geometry">
            <mxPoint x="434.6" y="706.5" as="sourcePoint" />
            <mxPoint x="434.9" y="600" as="targetPoint" />
          </mxGeometry>
        </mxCell>
        <mxCell id="108" value="" style="endArrow=classic;html=1;rounded=0;exitX=0.414;exitY=0.083;exitDx=0;exitDy=0;exitPerimeter=0;verticalAlign=middle;entryX=0.414;entryY=0.083;entryDx=0;entryDy=0;entryPerimeter=0;strokeColor=none;" parent="1" source="88" edge="1">
          <mxGeometry width="50" height="50" relative="1" as="geometry">
            <mxPoint x="434.09000000000003" y="376.5" as="sourcePoint" />
            <mxPoint x="434.39" y="270" as="targetPoint" />
          </mxGeometry>
        </mxCell>
        <mxCell id="109" value="" style="endArrow=classic;html=1;rounded=0;entryX=0.414;entryY=0.913;entryDx=0;entryDy=0;entryPerimeter=0;" parent="1" edge="1">
          <mxGeometry width="50" height="50" relative="1" as="geometry">
            <mxPoint x="435" y="390" as="sourcePoint" />
            <mxPoint x="435" y="250" as="targetPoint" />
          </mxGeometry>
        </mxCell>
        <mxCell id="112" value="" style="image;aspect=fixed;html=1;points=[];align=center;fontSize=12;image=img/lib/azure2/databases/Azure_Database_PostgreSQL_Server.svg;" parent="1" vertex="1">
          <mxGeometry x="720" y="720" width="70" height="93.33" as="geometry" />
        </mxCell>
        <mxCell id="114" value="" style="image;aspect=fixed;perimeter=ellipsePerimeter;html=1;align=center;shadow=0;dashed=0;spacingTop=3;image=img/lib/active_directory/list.svg;" parent="1" vertex="1">
          <mxGeometry x="179" y="1142.78" width="40.05" height="57.22" as="geometry" />
        </mxCell>
        <mxCell id="115" value="" style="endArrow=classic;html=1;rounded=0;entryX=0.25;entryY=0;entryDx=0;entryDy=0;" parent="1" target="114" edge="1">
          <mxGeometry width="50" height="50" relative="1" as="geometry">
            <mxPoint x="190" y="860" as="sourcePoint" />
            <mxPoint x="240" y="770" as="targetPoint" />
            <Array as="points">
              <mxPoint x="190" y="950" />
            </Array>
          </mxGeometry>
        </mxCell>
        <mxCell id="120" value="&lt;b&gt;&lt;font style=&quot;font-size: 13px;&quot;&gt;5. Get list of pending subscibers&lt;/font&gt;&lt;/b&gt;" style="edgeLabel;html=1;align=center;verticalAlign=middle;resizable=0;points=[];" parent="115" vertex="1" connectable="0">
          <mxGeometry x="0.2946" y="-2" relative="1" as="geometry">
            <mxPoint x="-108" y="45" as="offset" />
          </mxGeometry>
        </mxCell>
        <mxCell id="45" value="Rest API" style="shape=hexagon;perimeter=hexagonPerimeter2;whiteSpace=wrap;html=1;size=0.25;fillColor=#fff2cc;strokeColor=#d6b656;" parent="1" vertex="1">
          <mxGeometry x="140" y="775.75" width="126" height="88.5" as="geometry" />
        </mxCell>
        <mxCell id="118" value="" style="endArrow=classic;html=1;rounded=0;" parent="1" target="112" edge="1">
          <mxGeometry width="50" height="50" relative="1" as="geometry">
            <mxPoint x="480" y="770" as="sourcePoint" />
            <mxPoint x="530" y="720" as="targetPoint" />
          </mxGeometry>
        </mxCell>
        <mxCell id="119" value="&lt;b&gt;&lt;font style=&quot;font-size: 13px;&quot;&gt;4. Save pending subscriber&lt;/font&gt;&lt;/b&gt;" style="edgeLabel;html=1;align=center;verticalAlign=middle;resizable=0;points=[];" parent="118" vertex="1" connectable="0">
          <mxGeometry x="-0.2439" y="-4" relative="1" as="geometry">
            <mxPoint x="13" y="-23" as="offset" />
          </mxGeometry>
        </mxCell>
        <mxCell id="121" value="" style="endArrow=classic;html=1;rounded=0;entryX=0.25;entryY=0;entryDx=0;entryDy=0;" parent="1" edge="1">
          <mxGeometry width="50" height="50" relative="1" as="geometry">
            <mxPoint x="210" y="1155" as="sourcePoint" />
            <mxPoint x="211" y="870" as="targetPoint" />
            <Array as="points">
              <mxPoint x="211" y="960" />
            </Array>
          </mxGeometry>
        </mxCell>
        <mxCell id="123" value="&lt;b&gt;&lt;font style=&quot;font-size: 13px;&quot;&gt;6. Send approve/reject for pending subscriber&lt;/font&gt;&lt;/b&gt;" style="edgeLabel;html=1;align=center;verticalAlign=middle;resizable=0;points=[];" parent="121" vertex="1" connectable="0">
          <mxGeometry x="0.2" y="1" relative="1" as="geometry">
            <mxPoint x="150" y="107" as="offset" />
          </mxGeometry>
        </mxCell>
        <mxCell id="124" value="&lt;b&gt;&lt;font style=&quot;font-size: 13px;&quot;&gt;7. Remove pending subscriber&lt;/font&gt;&lt;/b&gt;" style="edgeLabel;html=1;align=center;verticalAlign=middle;resizable=0;points=[];" parent="1" vertex="1" connectable="0">
          <mxGeometry x="599.9961500091481" y="790.0022300829249" as="geometry" />
        </mxCell>
        <mxCell id="126" value="&lt;font style=&quot;font-size: 13px;&quot;&gt;&lt;b&gt;8. Send subscription decision back&lt;/b&gt;&lt;/font&gt;" style="edgeLabel;html=1;align=center;verticalAlign=middle;resizable=0;points=[];" parent="1" vertex="1" connectable="0">
          <mxGeometry x="569.9981227674326" y="674.9950479774066" as="geometry" />
        </mxCell>
        <mxCell id="130" value="" style="sketch=0;outlineConnect=0;fontColor=#232F3E;gradientColor=none;fillColor=#232F3D;strokeColor=none;dashed=0;verticalLabelPosition=bottom;verticalAlign=top;align=center;html=1;fontSize=12;fontStyle=0;aspect=fixed;pointerEvents=1;shape=mxgraph.aws4.authenticated_user;" parent="1" vertex="1">
          <mxGeometry x="-241" y="110" width="78" height="78" as="geometry" />
        </mxCell>
        <mxCell id="135" value="" style="verticalLabelPosition=bottom;html=1;verticalAlign=top;align=center;strokeColor=#2D7600;fillColor=#60a917;shape=mxgraph.azure.message;pointerEvents=1;fontColor=#ffffff;" parent="1" vertex="1">
          <mxGeometry x="-163" y="90" width="50" height="37.5" as="geometry" />
        </mxCell>
        <mxCell id="150" value="" style="sketch=0;pointerEvents=1;shadow=0;dashed=0;html=1;strokeColor=none;fillColor=#505050;labelPosition=center;verticalLabelPosition=bottom;verticalAlign=top;outlineConnect=0;align=center;shape=mxgraph.office.users.call_center_agent;" vertex="1" parent="1">
          <mxGeometry x="120" y="1200" width="46" height="55" as="geometry" />
        </mxCell>
      </root>
    </mxGraphModel>
  </diagram>
</mxfile>
